<svg width="17" height="13" viewBox="0 0 17 13" fill="none" xmlns="http://www.w3.org/2000/svg">
<path d="M0.00658232 6.25267C0.0658286 6.10784 0.111909 5.95644 0.190904 5.82478C0.460804 5.39689 0.849196 5.17965 1.35608 5.17965C4.63437 5.17965 7.90609 5.17965 11.1844 5.17965C11.2634 5.17965 11.349 5.17965 11.474 5.17965C11.4016 5.10066 11.3555 5.04799 11.3095 4.99533C10.559 4.24488 9.80855 3.50759 9.07126 2.75056C8.35372 2.01985 8.68287 0.815177 9.66372 0.551861C10.1377 0.426785 10.5722 0.525529 10.9211 0.874423C12.4944 2.43458 14.0677 4.00789 15.6278 5.58121C16.1413 6.10126 16.1413 6.89779 15.6278 7.41784C14.0677 8.99116 12.501 10.5645 10.9211 12.1246C10.401 12.6381 9.57156 12.6184 9.06468 12.1049C8.55779 11.5914 8.55121 10.7751 9.06468 10.2485C9.80197 9.49805 10.5458 8.76076 11.2897 8.01689C11.3424 7.96423 11.4082 7.92473 11.4674 7.87865C11.4543 7.8589 11.4477 7.83915 11.4345 7.81282C11.3555 7.81282 11.2765 7.81282 11.1975 7.81282C8.00483 7.81282 4.81211 7.79965 1.6194 7.8194C0.78995 7.82599 0.243568 7.54292 0 6.7398C0.00658292 6.58181 0.00658232 6.41724 0.00658232 6.25267Z" fill="#FFF1EA"/>
</svg>
