<svg width="48" height="31" viewBox="0 0 48 31" fill="none" xmlns="http://www.w3.org/2000/svg">
<path d="M0 19.9527C0.112485 19.4747 0.196848 18.9779 0.356202 18.5092C1.48105 15.1065 3.81511 13.0068 7.31151 12.2944C9.35499 11.8726 11.3422 12.2194 13.1982 13.2224C13.6013 13.438 13.6013 13.438 13.8919 13.1099C14.623 12.2569 15.3448 11.3945 16.0947 10.5602C16.2541 10.3728 16.2541 10.2322 16.1697 10.0259C15.6448 8.80736 15.1198 7.59815 14.6043 6.37019C14.4918 6.09835 14.3324 5.98587 14.0419 6.01399C13.8263 6.03273 13.6013 6.03273 13.3857 6.01399C12.617 5.94837 12.0359 5.34845 11.9984 4.60793C11.9609 3.93302 12.4764 3.30498 13.2076 3.14563C13.3576 3.10813 13.5169 3.09876 13.6669 3.09876C15.5417 3.09876 17.4164 3.09876 19.2818 3.09876C19.8629 3.09876 20.3598 3.2956 20.6785 3.79241C21.2878 4.73916 20.6222 5.95775 19.4505 6.00461C18.9349 6.03274 18.4194 6.01399 17.9038 6.00461C17.6601 6.00461 17.5945 6.07023 17.707 6.30457C18.0163 6.99823 18.3069 7.71063 18.6069 8.41366C18.7943 8.85423 18.8037 8.8636 19.2537 8.74174C20.2191 8.48865 21.1846 8.24494 22.1501 7.99185C24.9623 7.26069 27.7838 6.52954 30.5959 5.79839C31.0364 5.68591 31.0364 5.68591 30.8771 5.28284C30.6615 4.74853 30.4271 4.2236 30.2115 3.6893C29.846 2.77067 30.2115 1.97391 31.1583 1.6552C32.6018 1.16777 34.0454 0.670958 35.4983 0.202271C36.3795 -0.0883145 37.195 0.361625 37.42 1.24276C37.5981 1.92704 37.2044 2.64882 36.4826 2.92065C35.8264 3.16437 35.1609 3.37059 34.4953 3.59556C34.2423 3.67993 33.9985 3.78304 33.7454 3.83928C33.4924 3.89552 33.4642 4.00801 33.558 4.23298C33.9048 5.02975 34.2329 5.84526 34.5703 6.64203C35.3109 8.42304 36.0514 10.204 36.8013 11.9944C36.9606 12.3788 36.97 12.3788 37.3731 12.3038C42.5193 11.3945 46.878 14.8159 47.806 19.2684C48.8278 24.1709 45.7063 28.839 40.9445 29.8889C35.9389 30.995 31.1021 27.6579 30.249 22.8117C29.5835 19.0247 30.9146 15.9876 33.9985 13.7192C34.2329 13.5505 34.2891 13.4286 34.1673 13.1568C33.708 12.0975 33.2768 11.0289 32.8268 9.9697C32.6768 9.60413 32.6675 9.60413 32.4237 9.93221C30.9989 11.8819 29.5741 13.8411 28.1493 15.7908C26.6964 17.7874 25.2341 19.7653 23.7999 21.7712C23.3968 22.3337 22.8907 22.5868 22.2158 22.5774C20.9034 22.568 19.5911 22.5774 18.2788 22.5774C17.8288 22.5774 17.8101 22.5774 17.6882 23.0273C16.7696 26.6456 14.5105 28.9984 10.8735 29.8608C6.09293 30.9762 1.29358 27.911 0.178101 23.0554C0.121859 22.8023 0.0656161 22.5493 0 22.2962C0 21.5088 0 20.7308 0 19.9527ZM39.0135 27.1893C39.3978 27.1424 39.7915 27.1236 40.1758 27.058C43.2692 26.505 45.6688 23.4398 45.0033 20.009C44.5346 17.5812 43.0536 15.9876 40.6726 15.2565C39.9883 15.0409 39.276 14.9378 38.5448 15.0409C38.0949 15.0971 38.0949 15.1159 38.2636 15.519C38.5167 16.1376 38.7791 16.7563 39.0416 17.375C39.4915 18.4717 39.9602 19.559 40.382 20.6651C40.6445 21.3588 40.2883 22.1087 39.6228 22.418C38.976 22.718 38.2073 22.4836 37.8136 21.8743C37.7105 21.7056 37.6262 21.5181 37.5512 21.3307C36.8856 19.7371 36.2201 18.1342 35.5546 16.5407C35.4233 16.222 35.4046 16.2126 35.1515 16.4376C33.4361 17.8999 32.705 19.784 33.0143 21.9962C33.4924 25.2676 36.342 27.2268 39.0135 27.1893ZM8.87693 27.1893C9.28 27.1424 9.68307 27.133 10.0768 27.0487C12.3733 26.5612 13.9012 25.1926 14.6886 22.9898C14.8292 22.5868 14.8105 22.568 14.3981 22.5586C14.2856 22.5586 14.1825 22.5586 14.07 22.5586C12.4952 22.5586 10.9204 22.5586 9.33624 22.5586C9.1019 22.5586 8.86755 22.5399 8.64258 22.5024C7.63959 22.3149 7.16153 21.1807 7.72396 20.3183C7.84582 20.1402 7.9958 19.9715 8.1364 19.8121C9.2425 18.5185 10.3486 17.225 11.4547 15.9314C11.6703 15.6783 11.6703 15.6689 11.361 15.5377C10.2174 15.0409 9.02691 14.8815 7.79895 15.1253C4.49002 15.7814 2.35281 18.8748 2.94335 22.1743C3.48703 25.2489 6.22416 27.2174 8.87693 27.1893ZM29.396 9.13544C29.2648 9.15419 29.1898 9.15419 29.1148 9.17294C26.1621 9.93221 23.2187 10.6915 20.266 11.4601C19.9567 11.5351 19.9473 11.5632 20.0785 11.8726C20.7441 13.4286 21.419 14.994 22.0845 16.5501C22.2907 17.0188 22.4876 17.4968 22.6844 17.9655C22.7501 18.1155 22.825 18.1717 22.9375 18.003C22.9938 17.928 23.05 17.853 23.1063 17.778C24.1655 16.3345 25.2247 14.8815 26.2746 13.438C27.2401 12.1163 28.2056 10.7946 29.1617 9.4729C29.2367 9.36978 29.3023 9.27605 29.396 9.13544ZM16.1791 19.6528C17.4258 19.6528 18.6725 19.6528 19.9192 19.6528C20.266 19.6528 20.2754 19.6434 20.1442 19.3341C19.3286 17.4312 18.5131 15.5283 17.6976 13.6255C17.5476 13.2786 17.5383 13.2786 17.3039 13.5505C16.3853 14.6097 15.476 15.6783 14.5668 16.7469C13.8075 17.6374 13.0482 18.5185 12.289 19.4091C12.2421 19.4653 12.214 19.5403 12.1859 19.6059C12.2608 19.6247 12.3265 19.6528 12.4015 19.6528C13.6575 19.6528 14.9136 19.6528 16.1791 19.6528Z" fill="#F07C2F"/>
</svg>
