<svg width="49" height="49" viewBox="0 0 49 49" fill="none" xmlns="http://www.w3.org/2000/svg">
<path d="M4.93199 24.3727C5.84077 44.8975 32.0986 50.4468 41.3604 32.687C43.0909 29.371 43.642 25.7842 43.2456 22.0718C42.9072 18.862 47.6541 18.1563 48.1375 21.4047C50.7768 39.0001 30.8031 55.2904 12.7726 45.4002C-0.617339 38.0623 -3.82706 21.424 4.79665 9.76462C11.5448 0.638186 21.0676 0.00977754 24.1613 0.000109716C30.3874 -0.0192259 34.9216 2.52341 35.1246 2.64909C36.2171 3.36451 36.5845 4.73735 35.9754 5.86848C34.6122 8.43046 31.7602 6.44855 30.0587 5.86848C16.9008 1.45028 4.40026 12.5103 4.93199 24.3727Z" fill="#0ECE16"/>
<path d="M44.2994 5.385C46.5907 3.55778 49.5394 6.4678 47.7991 8.77841C47.6251 9.01044 36.6135 20.0124 26.1915 30.444C24.7414 31.8942 23.2429 31.5075 22.4404 30.7147C20.0235 28.3074 17.6065 25.9098 15.2186 23.4832C13.024 21.2499 16.0887 17.8275 18.5926 19.9061C18.8053 20.0801 23.9003 25.2524 24.0743 25.5038C24.171 25.4941 44.077 5.55902 44.2994 5.385Z" fill="#0ECE16"/>
</svg>
