<svg width="32" height="32" viewBox="0 0 32 32" fill="none" xmlns="http://www.w3.org/2000/svg">
<path d="M0 28.8117C0 20.2706 0 11.7216 0 3.18046C0.0156288 3.11013 0.0390721 3.0398 0.0547009 2.97729C0.375092 1.63321 1.17998 0.703297 2.47717 0.203175C2.70378 0.117216 2.94603 0.0625153 3.18828 0C11.7294 0 20.2784 0 28.8195 0C28.8586 0.0156288 28.8899 0.0390722 28.9289 0.0468866C30.3277 0.328205 31.2811 1.15653 31.7968 2.47717C31.8828 2.70379 31.9375 2.95385 32 3.18828C32 11.7294 32 20.2784 32 28.8195C31.9844 28.8899 31.9609 28.9602 31.9453 29.0227C31.6249 30.3668 30.82 31.2967 29.5228 31.7968C29.2962 31.8828 29.054 31.9375 28.8117 32C20.2706 32 11.7216 32 3.18046 32C3.14139 31.9844 3.11013 31.9609 3.07106 31.9531C1.65665 31.664 0.703297 30.8278 0.187546 29.4916C0.109402 29.2728 0.0625153 29.0383 0 28.8117ZM17.2464 15.4256C17.2464 15.2694 17.2464 15.16 17.2464 15.0506C17.2464 14.2613 17.2386 13.4642 17.2542 12.675C17.262 12.3624 17.2777 12.0498 17.3324 11.7451C17.8559 8.90061 20.2862 7.01734 22.8884 6.9939C23.6933 6.98608 24.4904 6.9939 25.2952 6.9939C25.3812 6.9939 25.475 7.00952 25.5609 7.01734C25.5609 8.32234 25.5609 9.59609 25.5609 10.8933C25.4281 10.8933 25.3109 10.8933 25.2015 10.8933C24.5372 10.8933 23.8652 10.8698 23.201 10.9011C22.865 10.9167 22.5055 10.9636 22.2007 11.0965C21.4349 11.4325 21.1614 12.1045 21.1458 12.8938C21.138 13.6518 21.1458 14.4176 21.1458 15.1756C21.1458 15.2537 21.1614 15.3319 21.1692 15.4413C22.6618 15.4413 24.1387 15.4413 25.6547 15.4413C25.4359 16.7541 25.2249 18.0278 25.0139 19.3328C23.7167 19.3328 22.4352 19.3328 21.1692 19.3328C21.1692 22.7399 21.1692 26.1079 21.1692 29.4916C21.3177 29.4916 21.4427 29.4916 21.5678 29.4916C23.6933 29.4916 25.8188 29.4916 27.9443 29.4916C28.0303 29.4916 28.1084 29.4916 28.1944 29.4916C28.9758 29.4603 29.4681 28.968 29.4994 28.1788C29.4994 28.1162 29.4994 28.0537 29.4994 27.9912C29.4994 19.9893 29.4994 11.9873 29.4994 3.98535C29.4994 3.91502 29.4994 3.83687 29.4994 3.76655C29.4525 3.02418 28.9836 2.55531 28.2491 2.50061C28.1475 2.4928 28.0381 2.50061 27.9365 2.50061C19.9893 2.50061 12.042 2.50061 4.08694 2.50061C4.00098 2.50061 3.92283 2.50061 3.83687 2.50061C3.0398 2.52405 2.53968 3.02418 2.51624 3.82125C2.51624 3.9072 2.51624 3.98535 2.51624 4.07131C2.51624 12.0186 2.51624 19.9658 2.51624 27.9209C2.51624 28.0225 2.50842 28.1319 2.51624 28.2335C2.56313 28.7726 2.79756 29.1946 3.32894 29.3822C3.53211 29.4525 3.75873 29.4759 3.96972 29.4759C8.28327 29.4838 12.5968 29.4838 16.9104 29.4759C17.012 29.4759 17.1136 29.4681 17.223 29.4603C17.223 26.0689 17.223 22.7009 17.223 19.2938C15.9726 19.2938 14.738 19.2938 13.5189 19.2938C13.5189 17.981 13.5189 16.6994 13.5189 15.41C14.7614 15.4256 15.9805 15.4256 17.2464 15.4256Z" fill="#F07C2F"/>
</svg>
