<svg width="48" height="48" viewBox="0 0 48 48" fill="none" xmlns="http://www.w3.org/2000/svg">
<path d="M22.0134 0C23.3275 0 24.6415 0 25.9431 0C26.6314 0.100118 27.3322 0.175207 28.0205 0.287839C32.4382 1.07627 36.3929 2.87839 39.7218 5.89444C46.2795 11.8139 49.0077 19.2101 47.6561 27.9454C46.7175 34.0401 43.6514 39.021 38.8082 42.8254C33.2767 47.1681 26.9818 48.7574 20.0486 47.6687C15.4557 46.9428 11.4134 44.9404 7.97189 41.8243C4.15489 38.4077 1.63943 34.1903 0.538133 29.1719C0.300353 28.1081 0.175206 27.0318 0 25.9556C0 24.6415 0 23.3275 0 22.0259C0.0250295 21.9383 0.0500588 21.8507 0.0750883 21.7631C0.275324 20.5993 0.350412 19.3979 0.675795 18.2715C3.30389 8.88547 9.34851 2.95348 18.7971 0.550649C19.8484 0.287839 20.9372 0.187721 22.0134 0ZM35.5669 8.86044C28.396 3.01605 16.3693 3.16623 9.18582 11.889C2.55301 19.9485 4.35513 30.4609 8.88547 35.5544C17.7709 26.6564 26.6564 17.7709 35.5669 8.86044ZM12.3896 39.1086C18.9223 44.5525 30.5735 45.0906 38.1074 36.8434C45.2283 29.0592 44.0143 18.1589 39.0835 12.4146C30.1981 21.3001 21.3001 30.1981 12.3896 39.1086Z" fill="#9B111A"/>
</svg>
