<svg width="32" height="32" viewBox="0 0 32 32" fill="none" xmlns="http://www.w3.org/2000/svg">
<path d="M7.10497 0C13.0166 0 18.9283 0 24.8399 0C25.5308 0.180568 26.2374 0.314032 26.9047 0.557407C29.8016 1.61726 31.9606 4.66337 31.9684 7.74873C31.9841 13.2443 31.9763 18.732 31.9684 24.2276C31.9684 24.7379 31.8899 25.2639 31.78 25.7663C30.9478 29.4169 27.6191 32.0234 23.8507 31.9998C18.6064 31.9606 13.3621 31.992 8.12557 31.9841C7.56032 31.9841 6.97151 31.9606 6.42195 31.835C3.56426 31.1834 1.55446 29.4954 0.4946 26.7477C0.259076 26.1431 0.164867 25.4915 0 24.8556C0 18.944 0 13.0323 0 7.12067C0.039254 6.88515 0.078508 6.64962 0.133464 6.42195C0.808632 3.56426 2.4887 1.55446 5.23648 0.4946C5.81744 0.259076 6.47691 0.157016 7.10497 0ZM29.2599 15.9842C29.2599 13.3856 29.2599 10.7791 29.2599 8.18053C29.2599 7.8665 29.2364 7.56032 29.205 7.24628C28.9066 4.74188 26.6456 2.70067 24.1333 2.70067C18.6927 2.68497 13.26 2.68497 7.82724 2.70852C7.30909 2.70852 6.76739 2.81844 6.27278 2.9833C4.06671 3.73698 2.67712 5.70753 2.67712 8.03921C2.66927 13.3385 2.67712 18.6299 2.67712 23.9292C2.67712 24.1962 2.70852 24.4709 2.73993 24.7379C3.02256 27.1873 5.30714 29.2678 7.77229 29.2678C13.2364 29.2835 18.6927 29.2756 24.1569 29.2678C24.4317 29.2678 24.7143 29.2285 24.9891 29.1657C27.5641 28.6083 29.2521 26.5121 29.2599 23.8743C29.2599 21.2443 29.2599 18.6142 29.2599 15.9842Z" fill="#F07C2F"/>
<path d="M15.9766 23.9921C11.5409 23.9921 7.96875 20.42 7.96875 15.9922C7.96875 11.5565 11.533 7.98438 15.9687 7.98438C20.4044 7.98438 23.9765 11.5486 23.9765 15.9843C23.9765 20.4122 20.4044 23.9921 15.9766 23.9921ZM15.953 21.2836C18.8814 21.2836 21.2601 18.9284 21.268 16.0079C21.2758 13.0795 18.9206 10.6929 16.0001 10.685C13.0561 10.6772 10.6773 13.0403 10.6694 15.9765C10.6694 18.9048 13.0325 21.2758 15.953 21.2836Z" fill="#F07C2F"/>
<path d="M24.7304 9.32639C23.702 9.41275 22.7442 8.58056 22.6264 7.57566C22.5008 6.4373 23.2859 5.40884 24.5028 5.30678C25.5705 5.21257 26.5518 6.08401 26.646 7.21453C26.7403 8.29008 25.8767 9.24003 24.7304 9.32639Z" fill="#F07C2F"/>
</svg>
