<svg width="141" height="64" viewBox="0 0 141 64" fill="none" xmlns="http://www.w3.org/2000/svg">
<g clip-path="url(#clip0_101_2379)">
<path d="M21.7831 37.2735C21.7831 43.0728 26.4796 47.7693 32.2789 47.7693V42.7874C29.2301 42.7874 26.7521 40.3093 26.7521 37.2605C26.7521 34.2246 29.2301 31.7466 32.2789 31.7466V26.7646C26.4796 26.7776 21.7831 31.4742 21.7831 37.2735Z" fill="#FFF1EA"/>
<path d="M43.2677 26.298C42.3855 25.4157 41.4125 24.6503 40.3357 24.0016C37.9874 22.5745 35.2369 21.7441 32.2919 21.7441V26.791C38.0652 26.791 42.7747 31.5005 42.7747 37.2738H47.8216C47.8216 32.9925 46.0831 29.1133 43.2677 26.298Z" fill="#FFF1EA"/>
<path d="M47.8216 37.2743C47.8216 42.7363 45.0063 47.5366 40.7249 50.313C40.4525 50.4946 40.18 50.6633 39.8946 50.819C39.6092 50.9876 39.3237 51.1303 39.0253 51.2731C38.5712 51.4936 38.1042 51.6882 37.6371 51.8439C37.4036 51.9347 37.1571 52.0126 36.9106 52.0904C36.5473 52.2072 36.1711 52.311 35.7948 52.3888C35.5094 52.4537 35.237 52.5185 34.9386 52.5575C34.0693 52.7132 33.1871 52.791 32.2789 52.791V58.1232C36.9495 58.1232 41.2828 56.5794 44.7598 53.9716C45.5642 53.3618 46.3296 52.7132 47.0302 51.9996C49.1449 49.8719 50.8315 47.2901 51.8824 44.4099C51.9862 44.1245 52.09 43.852 52.1678 43.5666C52.2457 43.3071 52.3235 43.0606 52.3884 42.8141C52.4533 42.5936 52.5181 42.36 52.5571 42.1395C52.9333 40.5696 53.1279 38.922 53.1279 37.2354H47.8216V37.2743Z" fill="#FFF1EA"/>
<path d="M19.7981 54.0097C19.5905 53.854 19.3959 53.7113 19.2013 53.5426C18.9159 53.3091 18.6305 53.0626 18.345 52.8161C17.7872 52.3101 17.2552 51.7782 16.7492 51.2203C16.5027 50.9349 16.2562 50.6625 16.0227 50.3641C15.867 50.1694 15.7113 49.9748 15.5556 49.7673C14.7642 48.6904 14.0507 47.5358 13.4669 46.3162C13.389 46.1605 13.3241 46.0178 13.2593 45.8621C13.1555 45.6286 13.0517 45.3951 12.9609 45.1615C12.8701 44.928 12.7792 44.6945 12.6884 44.461C11.8581 42.2165 11.417 39.8033 11.417 37.2734H5.7085C5.7085 37.9481 5.73444 38.6227 5.77337 39.2844C5.81229 39.9461 5.9031 40.5947 5.99392 41.2434C5.99392 41.3083 6.00689 41.3732 6.01987 41.438C6.2534 42.943 6.61667 44.3961 7.08372 45.7973C9.73039 53.6075 15.9319 59.809 23.7551 62.4687C25.1563 62.9487 26.6223 63.299 28.1143 63.5325C28.1792 63.5455 28.2441 63.5585 28.3089 63.5714C29.5934 63.7531 30.9167 63.8569 32.266 63.8569V58.1613C27.6084 58.1484 23.2881 56.6045 19.7981 54.0097Z" fill="#FFF1EA"/>
<path d="M29.5025 5.09919C29.1912 5.12513 28.8928 5.16406 28.5814 5.19C28.1662 5.22892 27.777 5.28082 27.3619 5.34569C25.7661 5.59219 24.2092 5.95546 22.6783 6.43549C21.9258 6.66902 21.1733 6.9285 20.4338 7.2269C20.0187 7.39556 19.6165 7.56422 19.2013 7.74585C17.4498 8.52428 15.7762 9.44543 14.2064 10.5093C13.7782 10.8077 13.3631 11.1061 12.9479 11.4045H12.9739C12.3511 11.8715 11.7543 12.3516 11.1705 12.8575C10.0028 13.8825 8.91304 14.9723 7.8881 16.1399C7.8881 16.1399 7.8881 16.1399 7.8881 16.1529C7.38212 16.7367 6.88911 17.3335 6.43503 17.9563V17.9692C6.12366 18.3844 5.82526 18.7996 5.52686 19.2277C5.24144 19.6558 4.95601 20.097 4.69653 20.5251C4.55382 20.7586 4.42408 20.9792 4.29434 21.1997C3.77539 22.1079 3.29536 23.029 2.86722 23.9761C2.73748 24.2616 2.62072 24.534 2.50395 24.8324C2.34827 25.2216 2.19258 25.5979 2.04987 25.9871C1.80337 26.6617 1.56984 27.3364 1.37523 28.024C1.18062 28.6597 1.01196 29.3084 0.856274 29.9701C0.856274 29.9701 0.8433 29.9701 0.8433 29.983C0.778431 30.2814 0.713562 30.5669 0.661666 30.8653C0.531928 31.462 0.441111 32.0588 0.350294 32.6556C0.259477 33.2654 0.194608 33.8752 0.142712 34.485C0.116765 34.7185 0.103791 34.952 0.090817 35.1726C0.0259477 35.8732 0 36.5737 0 37.2743H5.69552C5.69552 36.5997 5.72147 35.9251 5.77336 35.2634C5.81229 34.6017 5.9031 33.953 5.99392 33.3043C5.99392 33.2395 6.00689 33.1746 6.01987 33.1097C6.07176 32.7465 6.13663 32.3962 6.21447 32.0459C6.40908 30.995 6.69451 29.9571 7.03183 28.9451C7.18751 28.4651 7.36915 27.9851 7.53781 27.518C7.69349 27.1158 7.86215 26.7136 8.04379 26.3244C8.22542 25.9352 8.40706 25.546 8.60166 25.1568C8.79627 24.7805 8.99088 24.4043 9.21143 24.041C12.416 18.4752 17.5796 14.1679 23.7421 12.0791C25.1433 11.5991 26.6094 11.2358 28.1014 11.0153C28.1662 11.0023 28.2311 10.9893 28.296 10.9893C28.6203 10.9374 28.9447 10.8985 29.269 10.8596C29.5155 10.8336 29.762 10.7947 30.0085 10.7817C30.5015 10.7428 31.0075 10.7169 31.5005 10.6909C31.747 10.6779 32.0065 10.6779 32.253 10.6779V4.98242C31.5524 4.98242 30.8518 5.00837 30.1642 5.04729C29.9566 5.07324 29.7361 5.08621 29.5025 5.09919Z" fill="#FFF1EA"/>
<path d="M32.2919 0V4.98196C33.4336 4.98196 34.5753 5.03385 35.691 5.16359C35.9635 5.18954 36.2489 5.21549 36.5213 5.26738C37.0792 5.33225 37.6241 5.42307 38.169 5.52686C38.4415 5.56578 38.7139 5.63065 38.9734 5.68255C39.6999 5.83823 40.4135 6.00689 41.1141 6.21447C41.6201 6.35719 42.126 6.51287 42.632 6.69451C42.7747 6.73343 42.9045 6.78532 43.0342 6.82424C43.7478 7.07075 44.4484 7.35617 45.136 7.65457C45.6809 7.8881 46.2258 8.14758 46.7577 8.40705C47.1599 8.61464 47.5491 8.82222 47.9383 9.0298C48.7297 9.45794 49.4822 9.93797 50.2217 10.418C50.585 10.6645 50.9483 10.924 51.3115 11.1835C51.6359 11.417 51.9602 11.6635 52.2846 11.923C53.2446 12.6755 54.1528 13.4928 55.0221 14.3491C55.6578 14.9978 56.2805 15.6594 56.8773 16.36V16.373C57.4611 17.0606 58.032 17.7871 58.5639 18.5267C58.9272 19.0197 59.2645 19.5256 59.5888 20.0446C59.7964 20.3949 60.017 20.7452 60.2246 21.0955C60.6916 21.8869 61.1068 22.7042 61.509 23.5475C61.6387 23.833 61.7685 24.1054 61.8982 24.3908C62.2225 25.1433 62.5209 25.9088 62.7934 26.7002C63.001 27.271 63.1826 27.8549 63.3383 28.4257C64.1427 31.241 64.5708 34.212 64.5708 37.2609H69.5528C69.5528 16.6973 52.8684 0 32.2919 0Z" fill="#FFF1EA"/>
<path d="M62.7286 43.7215C62.1707 43.2674 61.3404 43.0469 60.1857 43.0469C59.044 43.0469 58.2266 43.1247 57.6428 43.2285V51.441H59.5111V48.457C59.6797 48.4829 59.9003 48.4959 60.1598 48.4959C61.2625 48.4959 62.2226 48.2234 62.8583 47.6137C63.3513 47.1596 63.6238 46.459 63.6238 45.6416C63.6108 44.8373 63.2605 44.1367 62.7286 43.7215ZM60.1338 47.0558C59.8614 47.0558 59.6667 47.0428 59.5111 47.0039V44.5389C59.6538 44.5129 59.9132 44.474 60.2765 44.474C61.2236 44.474 61.7555 44.9281 61.7555 45.6935C61.7426 46.5498 61.1328 47.0558 60.1338 47.0558Z" fill="#FFF1EA"/>
<path d="M70.5648 49.0927C70.3572 48.3272 70.0329 47.7823 69.4491 47.5488V47.5099C70.1626 47.2504 70.9151 46.5239 70.9151 45.46C70.9151 44.6946 70.6427 44.1107 70.1497 43.7085C69.5529 43.2415 68.6966 43.0469 67.4511 43.0469C66.4521 43.0469 65.5569 43.1247 64.9471 43.2285V51.441H66.8154V48.1715H67.3733C68.1517 48.1845 68.502 48.457 68.7355 49.4949C68.969 50.5328 69.1766 51.1945 69.3064 51.441H71.2395C71.0708 51.1166 70.8243 50.0398 70.5648 49.0927ZM67.5549 46.8093H66.8154V44.5129C66.9451 44.487 67.2176 44.4481 67.6587 44.4481C68.515 44.461 69.0469 44.8373 69.0469 45.6027C69.0469 46.3293 68.489 46.8093 67.5549 46.8093Z" fill="#FFF1EA"/>
<path d="M72.42 43.1113V51.4405H74.3013V43.1113H72.42Z" fill="#FFF1EA"/>
<path d="M81.6833 49.0927C81.4757 48.3272 81.1514 47.7823 80.5676 47.5488V47.5099C81.2811 47.2504 82.0336 46.5239 82.0336 45.46C82.0336 44.6946 81.7612 44.1107 81.2682 43.7085C80.6714 43.2415 79.8151 43.0469 78.5826 43.0469C77.5836 43.0469 76.6884 43.1247 76.0786 43.2285V51.441H77.9468V48.1715H78.5047C79.2702 48.1845 79.6205 48.457 79.854 49.4949C80.0875 50.5328 80.2951 51.1945 80.4249 51.441H82.358C82.1893 51.1166 81.9428 50.0398 81.6833 49.0927ZM78.6734 46.8093H77.9339V44.5129C78.0636 44.487 78.3361 44.4481 78.7772 44.4481C79.6334 44.461 80.1654 44.8373 80.1654 45.6027C80.1654 46.3293 79.6075 46.8093 78.6734 46.8093Z" fill="#FFF1EA"/>
<path d="M87.1454 42.9814C84.6933 42.9814 83.0975 44.8497 83.0975 47.3277C83.0975 49.7019 84.5506 51.5701 87.0156 51.5701C89.4547 51.5701 91.1024 49.9225 91.1024 47.1979C91.1024 44.8886 89.7012 42.9814 87.1454 42.9814ZM87.1065 50.0781C85.848 50.0781 85.0825 48.9235 85.0825 47.2888C85.0825 45.68 85.822 44.4734 87.0935 44.4734C88.3909 44.4734 89.1044 45.7579 89.1044 47.2498C89.1044 48.8716 88.3779 50.0781 87.1065 50.0781Z" fill="#FFF1EA"/>
<path d="M98.4326 43.9421C97.6282 43.3453 96.6033 43.0469 95.0205 43.0469C94.0864 43.0469 93.1782 43.1117 92.4906 43.2285V51.402C92.9577 51.4669 93.6453 51.5318 94.6313 51.5318C96.253 51.5318 97.6023 51.1815 98.4715 50.4549C99.2759 49.7803 99.8468 48.6775 99.8468 47.0817C99.8338 45.6027 99.2889 44.5908 98.4326 43.9421ZM95.0205 50.0528C94.787 50.0528 94.5275 50.0528 94.3718 50.0268V44.5778C94.5405 44.5389 94.8129 44.4999 95.2281 44.4999C96.8498 44.4999 97.8618 45.4081 97.8488 47.1336C97.8488 49.1316 96.7201 50.0657 95.0205 50.0528Z" fill="#FFF1EA"/>
<path d="M106.373 43.1113V45.5374C106.373 46.7959 106.412 47.9117 106.528 49.0144H106.502C106.126 48.0803 105.633 47.0294 105.14 46.1602L103.415 43.1113H101.222V51.4405H102.948V48.9366C102.948 47.5743 102.922 46.4067 102.87 45.2909H102.909C103.311 46.264 103.856 47.3408 104.349 48.236L106.126 51.4405H108.098V43.1113H106.373Z" fill="#FFF1EA"/>
<path d="M111.51 43.1113V48.3528C111.51 49.6502 111.017 50.0004 110.226 50.0004C109.863 50.0004 109.525 49.9356 109.266 49.8577L109.058 51.3757C109.421 51.5054 109.992 51.5703 110.433 51.5703C112.263 51.5703 113.391 50.74 113.391 48.3787V43.1113H111.51Z" fill="#FFF1EA"/>
<path d="M119.489 43.1113H117.024L114.481 51.4405H116.427L117.024 49.2999H119.424L120.073 51.4405H122.084L119.489 43.1113ZM117.297 47.8987L117.79 46.1342C117.932 45.6542 118.049 45.0185 118.166 44.5255H118.192C118.322 45.0055 118.464 45.6283 118.607 46.1342L119.126 47.8987H117.297Z" fill="#FFF1EA"/>
<path d="M127.274 50.0003C125.6 50.0003 124.614 48.9494 124.614 47.2758C124.614 45.4335 125.782 44.5253 127.261 44.5253C127.935 44.5253 128.467 44.668 128.843 44.8367L129.233 43.3447C128.908 43.1631 128.156 42.9814 127.183 42.9814C124.666 42.9814 122.642 44.5513 122.642 47.3926C122.642 49.7668 124.134 51.5701 127.014 51.5701C128.013 51.5701 128.804 51.3755 129.142 51.2069L128.856 49.7278C128.48 49.8835 127.857 50.0003 127.274 50.0003Z" fill="#FFF1EA"/>
<path d="M126.261 42.7225L124.782 41.0488H126.171L126.884 41.8662L127.598 41.0488H128.96L127.507 42.7225H126.261Z" fill="#FFF1EA"/>
<path d="M134.422 46.6532L137.173 43.1113H134.863L132.982 45.8877C132.787 46.1861 132.593 46.4845 132.411 46.7959H132.385V43.1113H130.517V51.4405H132.385V48.729L133.086 47.8598L135.136 51.4405H137.328L134.422 46.6532Z" fill="#FFF1EA"/>
<path d="M138.236 43.1113V51.4405H140.118V43.1113H138.236Z" fill="#FFF1EA"/>
<path d="M54.2696 62.4427C52.596 62.4427 51.61 61.3918 51.61 59.7182C51.61 57.8759 52.7776 56.9677 54.2566 56.9677C54.9313 56.9677 55.4632 57.1104 55.8394 57.2791L56.2287 55.7871C55.9043 55.6055 55.1518 55.4238 54.1788 55.4238C51.6619 55.4238 49.6379 56.9937 49.6379 59.8349C49.6379 62.2092 51.1299 64.0125 54.0101 64.0125C55.0091 64.0125 55.8005 63.8179 56.1378 63.6492L55.8524 62.1702C55.4632 62.3259 54.8405 62.4427 54.2696 62.4427Z" fill="#FFF1EA"/>
<path d="M59.498 62.3261V60.354H62.5599V58.8231H59.498V57.0976H62.7415V55.5537H57.6168V63.8829H62.9231V62.339H59.498V62.3261Z" fill="#FFF1EA"/>
<path d="M69.6177 55.554V57.9801C69.6177 59.2386 69.6566 60.3543 69.7733 61.4571H69.7474C69.3712 60.523 68.8911 59.4721 68.3851 58.6028L66.6596 55.554H64.467V63.8832H66.1926V61.3663C66.1926 60.004 66.1666 58.8364 66.1017 57.7206H66.1407C66.5429 58.6937 67.0878 59.7705 67.5808 60.6657L69.3582 63.8702H71.3302V55.541H69.6177V55.554Z" fill="#FFF1EA"/>
<path d="M72.5886 55.5537V57.1365H74.8331V63.8829H76.7143V57.1365H78.9977V55.5537H72.5886Z" fill="#FFF1EA"/>
<path d="M83.7591 55.5537H81.2941L78.7512 63.8829H80.6973L81.2811 61.7422H83.6813L84.33 63.8829H86.3539L83.7591 55.5537ZM81.5665 60.3281L82.0596 58.5636C82.1893 58.0836 82.319 57.4479 82.4358 56.9549H82.4617C82.5915 57.4349 82.7342 58.0577 82.8769 58.5636L83.3959 60.3281H81.5665Z" fill="#FFF1EA"/>
<path d="M93.3209 61.5211C93.1133 60.7557 92.789 60.2108 92.2051 59.9772V59.9383C92.9187 59.6788 93.6712 58.9523 93.6712 57.8884C93.6712 57.123 93.3987 56.5392 92.9057 56.1499C92.3089 55.6829 91.4527 55.4883 90.2201 55.4883C89.2212 55.4883 88.326 55.5661 87.7162 55.6699V63.8824H89.5844V60.613H90.1423C90.9207 60.6259 91.2581 60.8984 91.4916 61.9363C91.7251 62.9742 91.9327 63.6359 92.0624 63.8824H93.9826C93.8269 63.545 93.5804 62.4682 93.3209 61.5211ZM90.311 59.2377H89.5715V56.9543C89.7142 56.9154 89.9736 56.8895 90.4148 56.8895C91.271 56.8895 91.8029 57.2787 91.8029 58.0441C91.8029 58.7707 91.2451 59.2377 90.311 59.2377Z" fill="#FFF1EA"/>
</g>
<defs>
<clipPath id="clip0_101_2379">
<rect width="140.118" height="64" fill="white"/>
</clipPath>
</defs>
</svg>
