<svg width="141" height="65" viewBox="0 0 141 65" fill="none" xmlns="http://www.w3.org/2000/svg">
<path d="M21.7832 37.2735C21.7832 43.0728 26.4797 47.7693 32.279 47.7693V42.7874C29.2302 42.7874 26.7522 40.3093 26.7522 37.2605C26.7522 34.2246 29.2302 31.7466 32.279 31.7466V26.7646C26.4797 26.7776 21.7832 31.4742 21.7832 37.2735Z" fill="#5A391C"/>
<path d="M43.2679 26.298C42.3856 25.4157 41.4126 24.6503 40.3358 24.0016C37.9875 22.5745 35.2371 21.7441 32.292 21.7441V26.791C38.0654 26.791 42.7749 31.5005 42.7749 37.2738H47.8217C47.8217 32.9925 46.0832 29.1133 43.2679 26.298Z" fill="#5A391C"/>
<path d="M47.8215 37.2743C47.8215 42.7363 45.0062 47.5366 40.7248 50.313C40.4523 50.4946 40.1799 50.6633 39.8945 50.819C39.609 50.9876 39.3236 51.1303 39.0252 51.2731C38.5711 51.4936 38.1041 51.6882 37.637 51.8439C37.4035 51.9347 37.157 52.0126 36.9105 52.0904C36.5472 52.2072 36.171 52.311 35.7947 52.3888C35.5093 52.4537 35.2368 52.5185 34.9384 52.5575C34.0692 52.7132 33.187 52.791 32.2788 52.791V58.1232C36.9494 58.1232 41.2827 56.5794 44.7597 53.9716C45.564 53.3618 46.3295 52.7132 47.0301 51.9996C49.1448 49.8719 50.8314 47.2901 51.8823 44.4099C51.9861 44.1245 52.0899 43.852 52.1677 43.5666C52.2456 43.3071 52.3234 43.0606 52.3883 42.8141C52.4531 42.5936 52.518 42.36 52.5569 42.1395C52.9332 40.5696 53.1278 38.922 53.1278 37.2354H47.8215V37.2743Z" fill="#5A391C"/>
<path d="M19.7981 54.0097C19.5905 53.854 19.3959 53.7113 19.2013 53.5426C18.9159 53.3091 18.6305 53.0626 18.345 52.8161C17.7872 52.3101 17.2552 51.7782 16.7492 51.2203C16.5027 50.9349 16.2562 50.6625 16.0227 50.3641C15.867 50.1694 15.7113 49.9748 15.5556 49.7673C14.7642 48.6904 14.0507 47.5358 13.4669 46.3162C13.389 46.1605 13.3241 46.0178 13.2593 45.8621C13.1555 45.6286 13.0517 45.3951 12.9609 45.1615C12.8701 44.928 12.7792 44.6945 12.6884 44.461C11.8581 42.2165 11.417 39.8033 11.417 37.2734H5.7085C5.7085 37.9481 5.73444 38.6227 5.77337 39.2844C5.81229 39.9461 5.9031 40.5947 5.99392 41.2434C5.99392 41.3083 6.00689 41.3732 6.01987 41.438C6.2534 42.943 6.61667 44.3961 7.08372 45.7973C9.73039 53.6075 15.9319 59.809 23.7551 62.4687C25.1563 62.9487 26.6223 63.299 28.1143 63.5325C28.1792 63.5455 28.2441 63.5585 28.3089 63.5714C29.5934 63.7531 30.9167 63.8569 32.266 63.8569V58.1613C27.6084 58.1484 23.2881 56.6045 19.7981 54.0097Z" fill="#5A391C"/>
<path d="M29.5025 5.09919C29.1912 5.12513 28.8928 5.16406 28.5814 5.19C28.1662 5.22892 27.777 5.28082 27.3619 5.34569C25.7661 5.59219 24.2092 5.95546 22.6783 6.43549C21.9258 6.66902 21.1733 6.9285 20.4338 7.2269C20.0187 7.39556 19.6165 7.56422 19.2013 7.74585C17.4498 8.52428 15.7762 9.44543 14.2064 10.5093C13.7782 10.8077 13.3631 11.1061 12.9479 11.4045H12.9739C12.3511 11.8715 11.7543 12.3516 11.1705 12.8575C10.0028 13.8825 8.91304 14.9723 7.8881 16.1399C7.8881 16.1399 7.8881 16.1399 7.8881 16.1529C7.38212 16.7367 6.88911 17.3335 6.43503 17.9563V17.9692C6.12366 18.3844 5.82526 18.7996 5.52686 19.2277C5.24144 19.6558 4.95601 20.097 4.69653 20.5251C4.55382 20.7586 4.42408 20.9792 4.29434 21.1997C3.77539 22.1079 3.29536 23.029 2.86722 23.9761C2.73748 24.2616 2.62072 24.534 2.50395 24.8324C2.34827 25.2216 2.19258 25.5979 2.04987 25.9871C1.80337 26.6617 1.56984 27.3364 1.37523 28.024C1.18062 28.6597 1.01196 29.3084 0.856274 29.9701C0.856274 29.9701 0.8433 29.9701 0.8433 29.983C0.778431 30.2814 0.713562 30.5669 0.661666 30.8653C0.531928 31.462 0.441111 32.0588 0.350294 32.6556C0.259477 33.2654 0.194608 33.8752 0.142712 34.485C0.116765 34.7185 0.103791 34.952 0.090817 35.1726C0.0259477 35.8732 0 36.5737 0 37.2743H5.69552C5.69552 36.5997 5.72147 35.9251 5.77336 35.2634C5.81229 34.6017 5.9031 33.953 5.99392 33.3043C5.99392 33.2395 6.00689 33.1746 6.01987 33.1097C6.07176 32.7465 6.13663 32.3962 6.21447 32.0459C6.40908 30.995 6.69451 29.9571 7.03183 28.9451C7.18751 28.4651 7.36915 27.9851 7.53781 27.518C7.69349 27.1158 7.86215 26.7136 8.04379 26.3244C8.22542 25.9352 8.40706 25.546 8.60166 25.1568C8.79627 24.7805 8.99088 24.4043 9.21143 24.041C12.416 18.4752 17.5796 14.1679 23.7421 12.0791C25.1433 11.5991 26.6094 11.2358 28.1014 11.0153C28.1662 11.0023 28.2311 10.9893 28.296 10.9893C28.6203 10.9374 28.9447 10.8985 29.269 10.8596C29.5155 10.8336 29.762 10.7947 30.0085 10.7817C30.5015 10.7428 31.0075 10.7169 31.5005 10.6909C31.747 10.6779 32.0065 10.6779 32.253 10.6779V4.98242C31.5524 4.98242 30.8518 5.00837 30.1642 5.04729C29.9566 5.07324 29.7361 5.08621 29.5025 5.09919Z" fill="#5A391C"/>
<path d="M32.292 0V4.98196C33.4337 4.98196 34.5754 5.03385 35.6911 5.16359C35.9636 5.18954 36.249 5.21549 36.5215 5.26738C37.0793 5.33225 37.6242 5.42307 38.1691 5.52686C38.4416 5.56578 38.714 5.63065 38.9735 5.68255C39.7001 5.83823 40.4136 6.00689 41.1142 6.21447C41.6202 6.35719 42.1262 6.51287 42.6322 6.69451C42.7749 6.73343 42.9046 6.78532 43.0343 6.82424C43.7479 7.07075 44.4485 7.35617 45.1361 7.65457C45.681 7.8881 46.2259 8.14758 46.7578 8.40705C47.16 8.61464 47.5492 8.82222 47.9385 9.0298C48.7299 9.45794 49.4823 9.93797 50.2219 10.418C50.5851 10.6645 50.9484 10.924 51.3117 11.1835C51.636 11.417 51.9603 11.6635 52.2847 11.923C53.2448 12.6755 54.1529 13.4928 55.0222 14.3491C55.6579 14.9978 56.2806 15.6594 56.8774 16.36V16.373C57.4613 17.0606 58.0321 17.7871 58.564 18.5267C58.9273 19.0197 59.2646 19.5256 59.589 20.0446C59.7966 20.3949 60.0171 20.7452 60.2247 21.0955C60.6918 21.8869 61.1069 22.7042 61.5091 23.5475C61.6388 23.833 61.7686 24.1054 61.8983 24.3908C62.2227 25.1433 62.5211 25.9088 62.7935 26.7002C63.0011 27.271 63.1827 27.8549 63.3384 28.4257C64.1428 31.241 64.5709 34.212 64.5709 37.2609H69.5529C69.5529 16.6973 52.8685 0 32.292 0Z" fill="#5A391C"/>
<path d="M62.7288 43.7215C62.1709 43.2674 61.3406 43.0469 60.1859 43.0469C59.0442 43.0469 58.2269 43.1247 57.6431 43.2285V51.441H59.5113V48.457C59.68 48.4829 59.9005 48.4959 60.16 48.4959C61.2628 48.4959 62.2228 48.2234 62.8586 47.6137C63.3516 47.1596 63.624 46.459 63.624 45.6416C63.611 44.8373 63.2607 44.1367 62.7288 43.7215ZM60.134 47.0558C59.8616 47.0558 59.667 47.0428 59.5113 47.0039V44.5389C59.654 44.5129 59.9135 44.474 60.2768 44.474C61.2239 44.474 61.7558 44.9281 61.7558 45.6935C61.7428 46.5498 61.133 47.0558 60.134 47.0558Z" fill="#5A391C"/>
<path d="M70.5649 49.0927C70.3574 48.3272 70.033 47.7823 69.4492 47.5488V47.5099C70.1628 47.2504 70.9152 46.5239 70.9152 45.46C70.9152 44.6946 70.6428 44.1107 70.1498 43.7085C69.553 43.2415 68.6967 43.0469 67.4512 43.0469C66.4522 43.0469 65.557 43.1247 64.9473 43.2285V51.441H66.8155V48.1715H67.3734C68.1518 48.1845 68.5021 48.457 68.7356 49.4949C68.9692 50.5328 69.1767 51.1945 69.3065 51.441H71.2396C71.0709 51.1166 70.8244 50.0398 70.5649 49.0927ZM67.555 46.8093H66.8155V44.5129C66.9452 44.487 67.2177 44.4481 67.6588 44.4481C68.5151 44.461 69.047 44.8373 69.047 45.6027C69.047 46.3293 68.4891 46.8093 67.555 46.8093Z" fill="#5A391C"/>
<path d="M72.4204 43.1113V51.4405H74.3016V43.1113H72.4204Z" fill="#5A391C"/>
<path d="M81.6838 49.0927C81.4762 48.3272 81.1519 47.7823 80.5681 47.5488V47.5099C81.2816 47.2504 82.0341 46.5239 82.0341 45.46C82.0341 44.6946 81.7616 44.1107 81.2686 43.7085C80.6718 43.2415 79.8156 43.0469 78.5831 43.0469C77.5841 43.0469 76.6889 43.1247 76.0791 43.2285V51.441H77.9473V48.1715H78.5052C79.2707 48.1845 79.621 48.457 79.8545 49.4949C80.088 50.5328 80.2956 51.1945 80.4253 51.441H82.3584C82.1898 51.1166 81.9433 50.0398 81.6838 49.0927ZM78.6739 46.8093H77.9344V44.5129C78.0641 44.487 78.3366 44.4481 78.7777 44.4481C79.6339 44.461 80.1659 44.8373 80.1659 45.6027C80.1659 46.3293 79.608 46.8093 78.6739 46.8093Z" fill="#5A391C"/>
<path d="M87.1455 42.9814C84.6934 42.9814 83.0977 44.8497 83.0977 47.3277C83.0977 49.7019 84.5507 51.5701 87.0158 51.5701C89.4548 51.5701 91.1025 49.9225 91.1025 47.1979C91.1025 44.8886 89.7013 42.9814 87.1455 42.9814ZM87.1066 50.0781C85.8481 50.0781 85.0827 48.9235 85.0827 47.2888C85.0827 45.68 85.8222 44.4734 87.0936 44.4734C88.391 44.4734 89.1045 45.7579 89.1045 47.2498C89.1045 48.8716 88.378 50.0781 87.1066 50.0781Z" fill="#5A391C"/>
<path d="M98.4327 43.9421C97.6284 43.3453 96.6034 43.0469 95.0206 43.0469C94.0865 43.0469 93.1783 43.1117 92.4907 43.2285V51.402C92.9578 51.4669 93.6454 51.5318 94.6314 51.5318C96.2531 51.5318 97.6024 51.1815 98.4717 50.4549C99.276 49.7803 99.8469 48.6775 99.8469 47.0817C99.8339 45.6027 99.289 44.5908 98.4327 43.9421ZM95.0206 50.0528C94.7871 50.0528 94.5276 50.0528 94.3719 50.0268V44.5778C94.5406 44.5389 94.813 44.4999 95.2282 44.4999C96.8499 44.4999 97.8619 45.4081 97.8489 47.1336C97.8489 49.1316 96.7202 50.0657 95.0206 50.0528Z" fill="#5A391C"/>
<path d="M106.373 43.1113V45.5374C106.373 46.7959 106.412 47.9117 106.528 49.0144H106.503C106.126 48.0803 105.633 47.0294 105.14 46.1602L103.415 43.1113H101.222V51.4405H102.948V48.9366C102.948 47.5743 102.922 46.4067 102.87 45.2909H102.909C103.311 46.264 103.856 47.3408 104.349 48.236L106.126 51.4405H108.098V43.1113H106.373Z" fill="#5A391C"/>
<path d="M111.511 43.1113V48.3528C111.511 49.6502 111.018 50.0004 110.226 50.0004C109.863 50.0004 109.526 49.9356 109.266 49.8577L109.059 51.3757C109.422 51.5054 109.993 51.5703 110.434 51.5703C112.263 51.5703 113.392 50.74 113.392 48.3787V43.1113H111.511Z" fill="#5A391C"/>
<path d="M119.489 43.1113H117.024L114.481 51.4405H116.428L117.024 49.2999H119.424L120.073 51.4405H122.084L119.489 43.1113ZM117.297 47.8987L117.79 46.1342C117.932 45.6542 118.049 45.0185 118.166 44.5255H118.192C118.322 45.0055 118.464 45.6283 118.607 46.1342L119.126 47.8987H117.297Z" fill="#5A391C"/>
<path d="M127.274 50.0003C125.6 50.0003 124.614 48.9494 124.614 47.2758C124.614 45.4335 125.782 44.5253 127.261 44.5253C127.935 44.5253 128.467 44.668 128.844 44.8367L129.233 43.3447C128.908 43.1631 128.156 42.9814 127.183 42.9814C124.666 42.9814 122.642 44.5513 122.642 47.3926C122.642 49.7668 124.134 51.5701 127.014 51.5701C128.013 51.5701 128.805 51.3755 129.142 51.2069L128.857 49.7278C128.48 49.8835 127.858 50.0003 127.274 50.0003Z" fill="#5A391C"/>
<path d="M126.262 42.7225L124.783 41.0488H126.171L126.884 41.8662L127.598 41.0488H128.96L127.507 42.7225H126.262Z" fill="#5A391C"/>
<path d="M134.422 46.6532L137.173 43.1113H134.863L132.982 45.8877C132.788 46.1861 132.593 46.4845 132.411 46.7959H132.385V43.1113H130.517V51.4405H132.385V48.729L133.086 47.8598L135.136 51.4405H137.328L134.422 46.6532Z" fill="#5A391C"/>
<path d="M138.237 43.1113V51.4405H140.118V43.1113H138.237Z" fill="#5A391C"/>
<path d="M54.2698 62.4427C52.5962 62.4427 51.6102 61.3918 51.6102 59.7182C51.6102 57.8759 52.7779 56.9677 54.2569 56.9677C54.9315 56.9677 55.4634 57.1104 55.8397 57.2791L56.2289 55.7871C55.9046 55.6055 55.1521 55.4238 54.179 55.4238C51.6621 55.4238 49.6382 56.9937 49.6382 59.8349C49.6382 62.2092 51.1302 64.0125 54.0104 64.0125C55.0094 64.0125 55.8008 63.8179 56.1381 63.6492L55.8527 62.1702C55.4634 62.3259 54.8407 62.4427 54.2698 62.4427Z" fill="#5A391C"/>
<path d="M59.4984 62.3261V60.354H62.5602V58.8231H59.4984V57.0976H62.7419V55.5537H57.6172V63.8829H62.9235V62.339H59.4984V62.3261Z" fill="#5A391C"/>
<path d="M69.6179 55.554V57.9801C69.6179 59.2386 69.6568 60.3543 69.7736 61.4571H69.7476C69.3714 60.523 68.8914 59.4721 68.3854 58.6028L66.6599 55.554H64.4673V63.8832H66.1928V61.3663C66.1928 60.004 66.1669 58.8364 66.102 57.7206H66.1409C66.5431 58.6937 67.088 59.7705 67.581 60.6657L69.3584 63.8702H71.3305V55.541H69.6179V55.554Z" fill="#5A391C"/>
<path d="M72.5889 55.5537V57.1365H74.8333V63.8829H76.7146V57.1365H78.998V55.5537H72.5889Z" fill="#5A391C"/>
<path d="M83.7594 55.5537H81.2943L78.7515 63.8829H80.6975L81.2814 61.7422H83.6815L84.3302 63.8829H86.3541L83.7594 55.5537ZM81.5668 60.3281L82.0598 58.5636C82.1895 58.0836 82.3193 57.4479 82.436 56.9549H82.462C82.5917 57.4349 82.7344 58.0577 82.8771 58.5636L83.3961 60.3281H81.5668Z" fill="#5A391C"/>
<path d="M93.321 61.5211C93.1134 60.7557 92.7891 60.2108 92.2053 59.9772V59.9383C92.9188 59.6788 93.6713 58.9523 93.6713 57.8884C93.6713 57.123 93.3989 56.5392 92.9058 56.1499C92.3091 55.6829 91.4528 55.4883 90.2203 55.4883C89.2213 55.4883 88.3261 55.5661 87.7163 55.6699V63.8824H89.5845V60.613H90.1424C90.9209 60.6259 91.2582 60.8984 91.4917 61.9363C91.7252 62.9742 91.9328 63.6359 92.0625 63.8824H93.9827C93.827 63.545 93.5805 62.4682 93.321 61.5211ZM90.3111 59.2377H89.5716V56.9543C89.7143 56.9154 89.9738 56.8895 90.4149 56.8895C91.2712 56.8895 91.8031 57.2787 91.8031 58.0441C91.8031 58.7707 91.2452 59.2377 90.3111 59.2377Z" fill="#5A391C"/>
</svg>
