<svg width="26" height="32" viewBox="0 0 26 32" fill="none" xmlns="http://www.w3.org/2000/svg">
<path d="M12.5231 0C18.719 0.00731512 23.9347 4.35981 24.9442 10.4606C25.5659 14.2133 24.6369 17.6002 22.2595 20.5774C19.3774 24.1911 16.4806 27.7975 13.5911 31.4111C12.962 32.2012 12.1427 32.1938 11.5136 31.4038C8.63144 27.7901 5.73465 24.1838 2.84518 20.5701C1.36021 18.7194 0.401933 16.6346 0.116643 14.2791C-0.475882 9.48771 1.19928 5.60338 4.90805 2.58224C7.00017 0.892444 9.74334 0 12.5231 0ZM12.5523 28.9313C12.6548 28.8216 12.7206 28.7557 12.7791 28.6826C15.2882 25.5444 17.79 22.3989 20.3137 19.2753C22.3839 16.715 23.2032 13.8256 22.5887 10.585C21.5207 4.9816 16.1441 1.52886 10.7309 2.48714C5.74197 3.37227 2.32581 7.80523 2.32581 12.4284C2.32581 14.8058 2.99148 16.9564 4.46182 18.8218C7.04406 22.099 9.67019 25.3396 12.2744 28.6021C12.3548 28.7045 12.4426 28.7996 12.5523 28.9313Z" fill="#7C4905"/>
<path d="M19.4213 12.5893C19.3993 16.4224 16.327 19.4582 12.4938 19.4363C8.6973 19.4216 5.66152 16.2981 5.68347 12.4576C5.70541 8.71961 8.83628 5.67652 12.6401 5.70578C16.3782 5.72772 19.4505 8.84396 19.4213 12.5893ZM12.5816 17.0735C15.0761 17.0735 17.0877 15.0838 17.0951 12.6112C17.1024 10.1095 15.0615 8.03198 12.5963 8.03198C10.0725 8.03198 8.04625 10.0363 8.03894 12.5381C8.03162 15.0984 10.014 17.0735 12.5816 17.0735Z" fill="#7C4905"/>
</svg>
