<svg width="48" height="38" viewBox="0 0 48 38" fill="none" xmlns="http://www.w3.org/2000/svg">
<path d="M15.1099 25.798C14.8752 25.8262 14.6216 25.8637 14.3962 25.9388C13.5323 26.2206 12.8937 26.4553 12.302 26.7183C12.1518 26.784 12.0109 26.8498 11.8607 26.9155C11.2691 27.1878 10.6586 27.4602 9.99189 27.5353C8.47996 27.6949 7.36245 27.5541 6.36701 27.0657C6.23554 27 6.11346 26.9437 5.99138 26.8779C5.2495 26.5117 4.47945 26.1267 3.64366 25.9764C3.03325 25.8637 2.42285 25.7886 1.84061 25.7322C0.96726 25.6383 0.356853 25.9952 0.00939088 26.7746V27.6292V27.648C0.347462 28.3617 0.920306 28.6998 1.80305 28.7092C2.3665 28.7185 2.87361 28.7937 3.30559 28.9345C3.76574 29.0848 4.2165 29.3008 4.64848 29.5074C4.77996 29.5731 4.92082 29.6388 5.05229 29.7046C6.25432 30.268 7.52209 30.5498 8.88377 30.5498C9.59748 30.5498 10.33 30.4746 11.1 30.315C12.0485 30.1272 12.9125 29.6952 13.7482 29.2726L13.8328 29.2257C15.1099 28.5871 16.4528 28.6246 17.5985 28.7467C18.3404 28.8218 18.9884 29.1317 19.6457 29.4698C20.8665 30.099 22.0686 30.4371 23.3082 30.5122C24.698 30.5967 25.8907 30.4465 26.9612 30.0802C27.5716 29.8642 28.1632 29.5731 28.7267 29.3008L28.8769 29.2257C30.2105 28.5777 31.6191 28.6434 32.6896 28.7655C33.394 28.85 34.0419 29.1599 34.6429 29.4698C35.9013 30.1178 37.1315 30.4559 38.3993 30.5216C39.6765 30.5873 40.6343 30.4934 41.5077 30.2211C42.2496 29.9863 42.9633 29.6576 43.6582 29.3383L43.7897 29.282C44.6912 28.8688 45.4706 28.681 46.2501 28.6998C46.4097 28.6998 46.5694 28.6904 46.7196 28.6622C47.5648 28.5026 48.0625 27.864 47.9874 27.0282C47.9216 26.2675 47.2549 25.7041 46.4661 25.7322C45.8275 25.7604 45.142 25.8355 44.3813 25.967C43.5361 26.1173 42.7567 26.5023 42.0054 26.8685C41.8833 26.9249 41.7612 26.9906 41.6392 27.047C40.6155 27.5447 39.4793 27.6949 37.9673 27.5259C37.1973 27.4414 36.5117 27.1221 35.8732 26.8028C35.244 26.4835 34.4833 26.1361 33.6475 25.9576C33.4034 25.9013 33.1404 25.8637 32.8962 25.8168C32.7929 25.798 32.6896 25.7792 32.577 25.7604V13.2612H46.1374C46.1843 13.2612 46.2219 13.2612 46.2689 13.2612C46.3815 13.2612 46.4942 13.2612 46.6163 13.2518C47.3582 13.186 47.9592 12.6038 47.9968 11.8995C48.0437 11.1106 47.5742 10.5002 46.8135 10.3406C46.6163 10.303 46.4003 10.2842 46.1092 10.2842C42.5407 10.2842 38.9815 10.2842 35.413 10.2842H32.5582V9.74897C32.5582 9.28882 32.5582 8.83805 32.5582 8.3779C32.5582 7.11013 32.5582 5.79541 32.5582 4.50886C32.5582 4.20835 32.53 3.88906 32.4737 3.53221C32.2107 1.81368 30.6612 0.0106271 28.3135 0.0106271C28.2853 0.0106271 28.2478 0.0106271 28.2102 0.0106271C26.4447 0.0481906 25.1112 0.949714 24.3412 2.62129C24.0313 3.29743 23.9843 4.02992 23.9843 4.59338C23.9843 5.64515 23.9843 6.71571 23.9843 7.74871C23.9843 8.41546 23.9843 9.07283 23.9843 9.73958C23.9843 9.86166 23.9749 9.98374 23.9655 10.1058C23.9655 10.1528 23.9561 10.1903 23.9561 10.2373C23.1391 10.3312 18.8851 10.2936 18.3967 10.1903V10.0401C18.3967 9.90861 18.3967 9.76775 18.3967 9.62689C18.3967 9.05404 18.3967 8.47181 18.3873 7.89896C18.3873 6.61241 18.3873 5.27891 18.3404 3.97358C18.3028 2.75276 17.6924 1.61647 16.6594 0.855806C15.6076 0.0763632 14.3023 -0.186581 13.0721 0.132708C11.1376 0.639816 9.82286 2.31139 9.81347 4.29287C9.80408 5.56064 9.81347 6.84719 9.81347 8.09617C9.81347 8.65024 9.81347 9.2043 9.81347 9.76775V10.2842H9.24062C8.5457 10.2842 7.86016 10.2842 7.16524 10.2842C5.42793 10.2842 3.62488 10.2936 1.85 10.2749C0.929697 10.2655 0.347462 10.6035 0 11.3266V12.1812V12.1906C0.31929 12.9137 0.882743 13.2612 1.76549 13.2612H1.77488C5.01473 13.2612 8.29214 13.2612 11.4663 13.2612C12.5838 13.2612 13.7013 13.2612 14.8282 13.2612H15.3541C15.4574 13.9373 15.5043 24.3706 15.4104 25.751C15.3071 25.7698 15.2038 25.7886 15.1099 25.798ZM15.4292 4.40556V10.2749H12.8185C12.8092 10.2373 12.8092 10.1997 12.7998 10.1716C12.7904 10.0777 12.7716 9.99313 12.7716 9.90861V9.38272C12.7716 7.76749 12.7622 6.08653 12.781 4.44312C12.781 4.24591 12.8092 3.9454 12.9312 3.69185C13.1754 3.15657 13.8046 2.86545 14.4244 2.99693C14.9597 3.11901 15.3917 3.63551 15.4386 4.20835C15.4292 4.26469 15.4292 4.33982 15.4292 4.40556ZM29.5625 21.1683V25.8825C29.5061 25.9013 29.4498 25.9107 29.4028 25.9295C29.262 25.967 29.1305 25.9952 29.0084 26.0515C28.8582 26.1173 28.7079 26.1736 28.5483 26.2394C27.9754 26.4741 27.3838 26.7089 26.811 26.9718C24.9234 27.8546 23.0264 27.8452 21.1764 26.9718L21.0825 26.9249C20.2655 26.5399 19.4297 26.1361 18.5282 25.9295C18.4906 25.9201 18.4625 25.9107 18.4155 25.8919C18.4061 25.8825 18.3873 25.8825 18.3779 25.8731V21.1777L29.5625 21.1683ZM18.4625 18.1538C18.3498 17.7218 18.3216 14.0782 18.4249 13.2893H29.5061C29.6 13.7495 29.6282 17.3931 29.5531 18.1162C28.9427 18.2195 19.2419 18.2477 18.4625 18.1538ZM26.9424 4.22713C26.9518 3.53221 27.5153 2.97814 28.229 2.96875C28.2384 2.96875 28.2384 2.96875 28.2478 2.96875C28.9896 2.96875 29.5437 3.48525 29.5719 4.21774C29.5907 4.86571 29.5907 5.52307 29.5813 6.16165C29.5813 6.41521 29.5813 6.66876 29.5813 6.92231C29.5813 7.87079 29.5813 8.81927 29.5813 9.76775C29.5813 9.88044 29.5719 9.99313 29.5719 10.1058C29.5719 10.1528 29.5625 10.1997 29.5625 10.2561H26.98C26.9706 10.2373 26.9706 10.2185 26.9612 10.2091C26.9518 10.1809 26.9424 10.1622 26.9424 10.1528C26.9424 9.64567 26.9424 9.13856 26.9424 8.63145C26.933 7.19465 26.933 5.7015 26.9424 4.22713Z" fill="#F07C2F"/>
<path d="M46.4661 32.2777C46.4567 32.2777 46.4567 32.2777 46.4473 32.2777C45.7054 32.2871 44.8414 32.3247 44.0432 32.6064C43.198 32.9069 42.3623 33.2825 41.6298 33.6112C40.9818 33.9023 40.3808 34.0714 39.8079 34.1183C38.3054 34.2404 37.0282 33.9962 35.9013 33.367C34.8308 32.7754 33.6663 32.4186 32.4361 32.3153C31.3937 32.2307 30.3701 32.2871 29.3183 32.5125C28.4544 32.6909 27.6655 33.0853 26.8955 33.461L26.7171 33.5455C25.3836 34.1934 23.928 34.3249 22.3785 33.9399C21.8244 33.799 21.2797 33.5361 20.7538 33.2919C20.6412 33.2356 20.5191 33.1792 20.4064 33.1229C18.5282 32.2401 16.5373 32.0429 14.3211 32.5031C13.3632 32.7003 12.4993 33.1323 11.6729 33.5549C10.6117 34.0901 9.3815 34.2498 7.82261 34.062C7.04317 33.9681 6.33885 33.6206 5.73783 33.3107C4.57337 32.7003 3.29621 32.3528 1.83123 32.2683C0.948487 32.2214 0.356862 32.5594 0.00939941 33.3201V34.1747V34.1934C0.356862 34.9353 0.939096 35.2828 1.80306 35.2546C2.52615 35.2264 3.25864 35.3955 4.03809 35.7617C4.20712 35.8368 4.36677 35.9214 4.5358 36.0059C4.73301 36.0998 4.93022 36.1937 5.12743 36.2876C6.93987 37.1328 8.88378 37.3206 11.0812 36.8792C12.0297 36.682 12.8937 36.25 13.7295 35.8368C15.0254 35.1889 16.4904 35.048 18.0681 35.4236C18.6879 35.5739 19.2889 35.8744 19.8242 36.1374C21.1295 36.7853 22.4818 37.114 23.9186 37.114C24.6886 37.114 25.4775 37.0201 26.2945 36.8417C27.1115 36.6632 27.8627 36.2876 28.5858 35.9214L28.7549 35.8368C30.0978 35.1701 31.5909 35.0386 33.1874 35.4518C33.7133 35.5833 34.211 35.8275 34.7087 36.0716C34.8589 36.1467 35.0092 36.2125 35.1595 36.2876C37.0001 37.1328 38.9628 37.33 41.1602 36.8792C41.8833 36.729 42.5595 36.4191 43.2074 36.1186C43.4328 36.0153 43.6582 35.9026 43.893 35.8087C44.3343 35.6209 44.8227 35.4612 45.3486 35.3485C45.6021 35.2922 45.8744 35.2828 46.1374 35.2734C46.2689 35.264 46.4097 35.264 46.5506 35.2546C47.4333 35.1795 48.0343 34.5315 47.9968 33.6675C47.9592 32.8693 47.3019 32.2777 46.4661 32.2777Z" fill="#F07C2F"/>
</svg>
